<svg width="440" height="120" viewBox="0 0 440 120" fill="none" xmlns="http://www.w3.org/2000/svg">
<path d="M21.8484 59.9972L11.9199 69.9349L2 59.9972L11.9199 50.0596L21.8484 59.9972ZM45.9188 35.8667L62.9183 52.9051L72.8382 42.9674L45.9188 16L18.9995 42.9674L28.9194 52.9051L45.9188 35.8667ZM79.9263 50.0596L70.0064 59.9972L79.9263 69.9349L89.8376 59.9972L79.9263 50.0596ZM45.9188 84.1278L28.9194 67.098L18.9995 77.0271L45.9188 103.994L72.8382 77.0271L62.9183 67.098L45.9188 84.1278ZM45.9188 69.9349L55.8387 59.9972L45.9188 50.0596L35.9989 59.9972L45.9188 69.9349ZM150.61 70.8891V70.7516C150.61 64.2697 147.178 61.0288 141.591 58.8969C145.024 56.9627 147.924 53.9281 147.924 48.4864V48.3489C147.924 40.7667 141.866 35.8667 132.023 35.8667H109.677V84.1278H132.589C143.462 84.1278 150.627 79.7178 150.627 70.8891H150.61ZM137.395 50.2573C137.395 53.8421 134.434 55.3637 129.758 55.3637H120.001V45.1768H130.461C134.932 45.1768 137.412 46.9648 137.412 50.137L137.395 50.2573ZM140.081 69.5652C140.081 73.15 137.258 74.8005 132.572 74.8005H120.001V64.201H132.246C137.687 64.201 140.098 66.204 140.098 69.4449L140.081 69.5652ZM172.878 84.1278V35.8667H162.246V84.1278H172.878ZM229.849 84.1278V35.8667H219.354V65.585L196.786 35.8667H187.012V84.1278H197.472V53.4467L220.796 84.1278H229.849ZM288.554 84.1278L267.873 35.5228H258.099L237.461 84.1278H248.265L252.684 73.3047H273.056L277.458 84.1278H288.554ZM269.289 63.9259H256.451L262.853 48.2801L269.289 63.9259ZM339.071 84.1278V35.8667H328.577V65.585L305.999 35.8667H296.234V84.1278H306.686V53.4467L330.018 84.1278H339.071ZM393.777 76.3393L387.041 69.5136C383.256 72.9523 379.884 75.1616 374.375 75.1616C366.119 75.1616 360.404 68.2843 360.404 59.9972V59.8597C360.404 51.5898 366.257 44.8329 374.375 44.8329C379.189 44.8329 382.956 46.8961 386.697 50.2745L393.416 42.486C388.946 38.076 383.514 35.0414 374.426 35.0414C359.632 35.0414 349.309 46.2771 349.309 59.9715V60.109C349.309 73.9667 359.838 84.9273 374.014 84.9273C383.291 84.9531 388.791 81.6434 393.742 76.3393H393.777ZM439 84.1278V74.6716H412.81V64.519H435.525V55.0628H412.81V45.3143H438.622V35.8581H402.281V84.1192L439 84.1278Z" fill="#F0B90B"/>
</svg>