<svg width="261" height="120" viewBox="0 0 261 120" fill="none" xmlns="http://www.w3.org/2000/svg">
<g clip-path="url(#clip0_1550_57)">
<path fill-rule="evenodd" clip-rule="evenodd" d="M69.7971 34.94C73.9165 34.94 77.2718 31.5868 77.2718 27.47C77.2718 23.3532 73.9165 20 69.7971 20C65.6777 20 62.3224 23.3532 62.3224 27.47C62.3224 31.5868 65.6777 34.94 69.7971 34.94ZM53.1537 46.1932C53.2866 50.3432 51.8248 54.128 49.3 56.9499V56.9831C51.3597 58.3775 56.4758 62.1955 56.4758 69.5327C56.4758 77.9323 49.599 84.7715 41.1609 84.7715H0V31.6516H37.5066C45.7454 31.6516 52.755 38.026 53.1537 46.1932ZM39.832 47.2556C39.832 43.5372 36.7425 41.8772 33.2211 41.8772H13.2884V52.468H33.2211C36.676 52.468 39.7988 50.9408 39.832 47.2556ZM13.222 62.6935L13.2884 74.5459V74.5127H36.5432C39.9649 74.5127 43.1209 72.2883 43.1874 68.6031C43.1874 64.8847 40.0646 62.6935 36.5432 62.6935H13.222ZM63.1529 38.2593H76.4413V84.7393H63.1529V38.2593ZM134.545 60.0717C134.545 47.9204 126.24 40.1848 116.274 38.558C115.078 38.392 113.782 38.2593 112.42 38.2593C108.135 38.2593 103.052 39.0561 98.0021 41.5793V38.2593H84.7137V84.7393H98.0021V61.4329C98.0021 52.1036 103.45 48.7504 109.629 48.7504C116.274 48.7504 121.257 53.1328 121.257 61.4329V84.7393H134.545V60.0717ZM230.322 48.4518C219.957 37.1306 206.735 34.9394 199.36 34.9394V48.7174C204.808 48.7174 214.641 50.4106 221.85 59.8061C214.641 69.2017 204.808 70.8949 199.36 70.8949V84.6729C206.735 84.6729 219.957 82.4817 230.322 71.1605C241.052 82.5481 253.277 84.6729 260.918 84.6729V70.8949C255.702 70.8949 246.733 69.5669 238.693 59.8061C246.733 50.0453 255.736 48.7174 260.918 48.7174V34.9394C253.277 34.9394 241.052 37.0642 230.322 48.4518ZM179.393 41.6788V38.2593H192.649V79.0621C192.649 86.4989 188.828 102.999 165.374 102.999C153.614 102.999 143.913 98.1521 139.495 91.4125L149.461 84.7393C151.454 87.4617 156.703 91.3793 164.411 91.3793C176.57 91.3793 179.36 83.0129 179.36 79.0621C175.706 81.6517 170.59 83.0793 164.012 83.0793C151.288 83.0793 139.528 72.6877 139.528 59.4077C139.528 46.1276 151.388 38.2593 164.045 38.2593C171.719 38.2593 177.467 40.7492 179.393 41.6788ZM152.816 60.1049C152.816 66.3797 158.763 71.4593 166.105 71.4593C173.447 71.4593 179.393 66.3797 179.393 60.1049C179.393 53.8301 173.447 48.7504 166.105 48.7504C158.763 48.7504 152.816 53.8301 152.816 60.1049Z" fill="#2954FE"/>
</g>
<defs>
<clipPath id="clip0_1550_57">
<rect width="261" height="120" fill="white"/>
</clipPath>
</defs>
</svg>