<svg width="264" height="120" viewBox="0 0 264 120" fill="none" xmlns="http://www.w3.org/2000/svg">
<g clip-path="url(#clip0_931_4)">
<path d="M261.998 49.4167C262.291 49.4167 262.583 49.4167 262.875 49.7083C263.168 50 263.168 50.2917 263.168 50.5833V57C263.168 57.2917 263.168 57.5833 262.875 57.875C262.583 58.1667 262.291 58.1667 261.998 58.1667H256.443V83.8333C256.443 84.125 256.443 84.4167 256.151 84.7083C255.858 85 255.566 85 255.273 85H246.794C246.502 85 246.209 85 245.917 84.7083C245.624 84.4167 245.624 84.125 245.624 83.8333V57.875H240.069C239.777 57.875 239.484 57.875 239.192 57.5833C238.899 57.2917 238.899 57 238.899 56.7083V50.2917C238.899 50 238.899 49.7083 239.192 49.4167C239.484 49.4167 239.777 49.4167 240.069 49.4167H245.624V40.375C245.624 40.0833 245.624 39.7917 245.917 39.5C246.209 39.2083 246.502 39.2083 246.794 39.2083H255.273C255.566 39.2083 255.858 39.2083 256.151 39.5C256.443 39.7917 256.443 40.0833 256.443 40.375V49.4167H261.998Z" fill="#1EA2B4"/>
<path d="M237.73 66.625C237.73 68.0833 237.438 69.25 237.145 70.125C236.853 70.7083 236.268 71 235.098 71H214.046C214.631 73.0417 215.508 74.5 216.97 75.375C218.432 76.25 220.479 76.8333 222.818 76.8333C223.987 76.8333 225.157 76.8333 226.034 76.5417C227.204 76.25 228.373 75.6667 229.543 74.7917C229.835 74.5 230.128 74.5 230.42 74.5C230.712 74.5 231.005 74.5 231.297 74.7917L235.098 78.2917C235.391 78.5833 235.391 78.5833 235.391 78.875C235.391 79.1667 235.391 79.4583 235.098 79.75C233.344 81.5 231.59 82.6667 229.251 83.8333C227.204 84.7083 224.865 85.2917 222.233 85.2917C218.724 85.2917 215.508 84.4167 212.584 82.9583C209.953 81.2083 207.614 79.1667 206.152 76.25C204.69 73.625 203.812 70.4167 203.812 67.2083C203.812 64 204.69 60.7917 206.152 58.1667C207.614 55.5417 209.953 53.2083 212.584 51.75C215.216 50 218.14 49.4167 221.648 49.4167C224.865 49.4167 227.789 50.2917 230.128 51.75C232.759 53.2083 234.514 55.5417 235.976 58.1667C237.145 60.5 237.73 63.4167 237.73 66.625ZM221.356 58.1667C219.602 58.1667 217.847 58.75 216.678 59.625C215.216 60.5 214.631 61.9583 214.046 64H228.373C228.081 61.9583 227.204 60.5 226.034 59.625C224.572 58.75 223.11 58.1667 221.356 58.1667Z" fill="#1EA2B4"/>
<path d="M199.134 50C199.427 50 199.719 50 200.011 50.2917C200.304 50.5833 200.304 50.875 200.304 51.1667V84.7083C200.304 88.2083 199.427 91.125 197.38 93.1667C195.625 95.5 193.286 96.9583 190.362 97.8333C187.438 98.4167 184.807 99 181.591 99C178.667 99 175.743 98.7083 173.111 97.8333C170.48 96.9583 168.141 95.7917 166.386 94.625C166.094 94.3333 166.094 94.0417 166.094 93.75C166.094 93.4583 166.094 93.1667 166.094 93.1667L168.725 88.2083C169.018 87.9167 169.31 87.625 169.603 87.625C169.895 87.625 169.895 87.625 170.187 87.625C171.649 88.5 173.404 89.375 175.158 89.6667C176.912 89.9583 178.667 90.25 181.006 90.25C183.345 90.25 185.684 89.6667 187.438 88.7917C189.485 87.9167 190.362 86.1667 190.362 83.8333V80.625C187.731 83.8333 184.222 85.2917 180.129 85.2917C176.912 85.2917 173.988 84.4167 171.649 82.9583C169.018 81.2083 166.971 79.1667 165.509 76.25C164.047 73.625 163.462 70.4167 163.462 67.2083C163.462 64 164.047 61.0833 165.509 58.1667C167.263 55.25 169.018 53.2083 171.649 51.4583C174.281 49.7083 176.912 49.125 180.129 49.125C183.93 49.125 187.146 50.5833 190.07 53.7917L190.362 50.875C190.362 50.2917 190.947 49.7083 191.532 49.7083H199.134V50ZM181.591 75.375C183.637 75.375 185.684 74.5 187.146 72.75C188.608 71 189.485 69.25 189.485 66.9167C189.485 64.5833 188.608 62.8333 187.146 61.0833C185.684 59.3333 183.93 58.4583 181.591 58.4583C179.252 58.4583 177.497 59.3333 176.035 60.7917C174.573 62.25 173.696 64.2917 173.696 66.625C173.696 68.9583 174.281 71 175.743 72.4583C177.497 74.5 179.252 75.375 181.591 75.375Z" fill="#1EA2B4"/>
<path d="M159.954 49.4167C160.246 49.4167 160.538 49.4167 160.831 49.7083C161.123 50 161.123 50.2917 161.123 50.5833V57C161.123 57.2917 161.123 57.5833 160.831 57.875C160.538 58.1667 160.246 58.1667 159.954 58.1667H154.398V83.8333C154.398 84.125 154.398 84.4167 154.106 84.7083C153.813 85 153.521 85 153.229 85H144.749C144.457 85 144.165 85 143.872 84.7083C143.872 84.4167 143.872 84.125 143.872 83.8333V57.875H138.024C137.732 57.875 137.44 57.875 137.147 57.5833C136.855 57.2917 136.855 57 136.855 56.7083V50.2917C136.855 50 136.855 49.7083 137.147 49.4167C137.44 49.4167 137.732 49.4167 138.024 49.4167H143.872V40.375C143.872 40.0833 143.872 39.7917 144.165 39.5C144.457 39.2083 144.749 39.2083 145.042 39.2083H153.521C153.813 39.2083 154.106 39.2083 154.398 39.5C154.691 39.7917 154.691 40.0833 154.691 40.375V49.4167H159.954Z" fill="#1EA2B4"/>
<path d="M127.791 46.5C126.329 46.5 124.867 45.9167 123.697 44.75C122.82 43.5833 122.235 42.4167 122.235 40.6667C122.235 38.9167 122.82 37.75 123.99 36.5833C124.867 35.4167 126.329 34.8333 127.791 34.8333C129.253 34.8333 130.715 35.4167 131.884 36.5833C133.054 37.75 133.639 39.2083 133.639 40.6667C133.639 42.125 133.054 43.5833 131.884 44.75C130.715 45.9167 129.545 46.5 127.791 46.5ZM122.528 50.2917C122.528 50 122.528 49.7083 122.82 49.4167C123.113 49.4167 123.405 49.4167 123.697 49.4167H132.177C132.469 49.4167 132.761 49.4167 133.054 49.7083C133.346 50 133.346 50.2917 133.346 50.5833V83.8333C133.346 84.125 133.346 84.4167 133.054 84.7083C132.761 85 132.469 85 132.177 85H123.697C123.405 85 123.113 85 122.82 84.7083C122.528 84.4167 122.528 84.125 122.528 83.8333V50.2917Z" fill="#1EA2B4"/>
<path d="M109.078 58.1667C111.709 58.75 114.048 60.2083 115.803 62.5417C117.849 64.875 118.727 67.5 118.727 70.4167C118.727 75.0833 117.265 78.875 114.048 81.2083C111.124 83.5417 106.446 84.7083 100.306 84.7083H83.0548C82.7624 84.7083 82.47 84.7083 82.1776 84.4167C81.8853 84.125 81.8853 83.8333 81.8853 83.5417V36C81.8853 35.7083 81.8853 35.4167 82.1776 35.125C82.1776 35.125 82.47 34.8333 82.7624 34.8333H100.014C103.23 34.8333 105.861 35.4167 107.908 36.5833C110.247 37.75 112.002 39.2083 112.879 41.25C114.048 43.2917 114.633 45.3333 114.633 47.9583C114.633 50.2917 114.048 52.625 112.879 54.375C112.002 56.125 110.54 57.5833 109.078 58.1667ZM104.692 49.4167C104.692 46.5 102.937 44.75 99.1363 44.75H92.7037V54.375H99.1363C100.891 54.375 102.353 54.0833 103.23 53.2083C104.107 52.3333 104.692 50.875 104.692 49.4167ZM100.598 75.0833C102.645 75.0833 104.399 74.5 105.861 73.625C107.031 72.75 107.908 71 107.908 69.25C107.908 67.2083 107.323 65.75 105.861 64.875C104.692 64 102.937 63.4167 100.598 63.4167H92.7037V75.0833H100.598Z" fill="#1EA2B4"/>
<path d="M21.3602 30.4583C22.2374 29.5833 23.407 29 24.5765 29H33.0559C34.2255 29 34.8102 30.1667 33.9331 31.0417L17.2668 49.125H26.6233L35.9798 59.0417H17.2668L35.9798 79.1667H24.5765C23.407 79.1667 21.945 78.5833 21.0678 77.7083L2.06241 57.2917C0.600457 55.5417 0.600457 52.625 2.35481 50.875L21.3602 30.4583Z" fill="#1EA2B4"/>
<path d="M47.383 97.5417C46.5058 98.4167 45.3363 99 43.8743 99H35.3949C34.2254 99 33.6406 97.8333 34.5178 96.9583L51.4765 78.875H42.1199L32.7634 68.9583H51.4765L32.7634 48.8333H44.1667C45.3363 48.8333 46.7982 49.4167 47.6754 50.2917L66.6808 70.7083C68.4352 72.4583 68.4352 75.375 66.6808 77.125L47.383 97.5417Z" fill="#1EA2B4"/>
</g>
<defs>
<clipPath id="clip0_931_4">
<rect width="264" height="120" fill="white"/>
</clipPath>
</defs>
</svg>