<svg width="196" height="120" viewBox="0 0 196 120" fill="none" xmlns="http://www.w3.org/2000/svg">
<path d="M139.659 70.3982V20H149.851V70.3982H139.659Z" fill="#F7A600"/>
<path d="M21.7272 85.4057H0V35.0075H20.8313C30.9109 35.0075 36.8467 40.4953 36.8467 49.119C36.8467 54.7188 33.0388 58.3026 30.4629 59.5346C33.5988 60.9906 37.6307 64.1264 37.6307 70.8462C37.6307 80.2539 31.0229 85.2937 21.7272 85.2937V85.4057ZM20.0473 43.8552H10.0796V55.5027H20.0473C24.3032 55.5027 26.7671 53.1508 26.7671 49.6789C26.7671 46.2071 24.3032 43.8552 20.0473 43.8552ZM20.7193 64.3504H10.1916V76.782H20.7193C25.3111 76.782 27.551 73.9821 27.551 70.5102C27.551 67.1503 25.3111 64.3504 20.8313 64.3504H20.7193Z" fill="black"/>
<path d="M68.4296 64.6864V85.4057H58.3499V64.6864L42.7825 35.0075H53.8701L63.5017 55.2788L73.0214 35.0075H83.997L68.4296 64.6864Z" fill="black"/>
<path d="M112.78 85.4057H91.0527V35.0075H111.884C121.964 35.0075 127.899 40.4953 127.899 49.119C127.899 54.7188 124.092 58.3026 121.516 59.5346C124.652 60.9906 128.683 64.1264 128.683 70.8462C128.683 80.2539 122.076 85.2937 112.78 85.2937V85.4057ZM111.1 43.8552H101.244V55.5027H111.1C115.356 55.5027 117.82 53.1508 117.82 49.6789C117.82 46.2071 115.356 43.8552 111.1 43.8552ZM111.772 64.3504H101.244V76.782H111.772C116.364 76.782 118.604 73.9821 118.604 70.5102C118.604 67.1503 116.364 64.3504 111.772 64.3504Z" fill="black"/>
<path d="M182.442 43.7432V85.4057H172.362V43.7432H158.81V35.0075H195.993V43.7432H182.442Z" fill="black"/>
</svg>