<svg width="302" height="120" viewBox="0 0 302 120" fill="none" xmlns="http://www.w3.org/2000/svg">
<path d="M182.967 37H174.962V45.694H170.17V53.322H174.962V73.2803C174.908 75.0301 175.162 76.7757 175.711 78.4362C176.165 79.6736 176.914 80.7795 177.89 81.6567C178.83 82.522 179.955 83.156 181.177 83.5089C183.953 84.1893 186.849 84.1893 189.624 83.5089C190.727 83.2152 191.79 82.7888 192.792 82.2388V76.1001C191.292 76.7385 189.686 77.0823 188.059 77.1132C187.387 77.1904 186.706 77.1166 186.065 76.897C185.424 76.6774 184.839 76.3175 184.352 75.8431C183.431 74.9661 182.945 73.817 182.945 71.8817V53.322H192.792V45.694H182.967V37ZM157.784 48.4004C154.871 46.2474 151.424 44.9511 147.826 44.6553C144.227 44.3595 140.618 45.0758 137.398 46.7247C134.178 48.3737 131.474 50.8908 129.585 53.9969C127.695 57.103 126.695 60.6767 126.695 64.3217C126.695 67.9667 127.695 71.5404 129.585 74.6465C131.474 77.7526 134.178 80.2698 137.398 81.9187C140.618 83.5676 144.227 84.2839 147.826 83.9881C151.424 83.6923 154.871 82.396 157.784 80.243V82.9721H165.789V45.6637H157.784V48.4004ZM146.237 75.9414C143.953 75.9414 141.721 75.2575 139.822 73.9762C137.922 72.6949 136.443 70.8738 135.569 68.7433C134.695 66.6127 134.467 64.2684 134.913 62.0069C135.359 59.7453 136.46 57.6682 138.075 56.0382C139.691 54.4081 141.749 53.2985 143.989 52.8495C146.23 52.4006 148.552 52.6325 150.661 53.516C152.771 54.3995 154.574 55.8948 155.842 57.8129C157.11 59.7309 157.786 61.9855 157.784 64.2915C157.784 65.822 157.485 67.3375 156.905 68.7514C156.325 70.1654 155.474 71.45 154.402 72.5319C153.329 73.6138 152.056 74.4717 150.656 75.0567C149.255 75.6418 147.753 75.9424 146.237 75.9414ZM102.371 57.0415V66.0378H114.42C113.671 69.2342 111.856 72.073 109.279 74.0774C106.701 76.0819 103.519 77.1298 100.267 77.0451C97.6988 77.04 95.1728 76.3846 92.9202 75.1391C90.6676 73.8936 88.7603 72.0976 87.3729 69.9155C85.9856 67.7334 85.1623 65.235 84.9787 62.6487C84.795 60.0624 85.2566 57.4709 86.3214 55.1113C87.3862 52.7517 89.0202 50.6993 91.0737 49.1421C93.1273 47.5848 95.5348 46.5723 98.0761 46.1972C100.617 45.8222 103.211 46.0965 105.621 46.9952C108.03 47.8938 110.177 49.3881 111.866 51.3413L118.763 45.6562C116.128 42.5198 112.752 40.104 108.949 38.6314C105.145 37.1588 101.035 36.6769 96.9983 37.2302C92.9614 37.7834 89.1276 39.354 85.8503 41.797C82.5731 44.2401 79.9579 47.4769 78.246 51.2091C76.5342 54.9412 75.7807 59.0484 76.0551 63.1519C76.3296 67.2555 77.6231 71.2231 79.8163 74.6891C82.0096 78.155 85.032 81.0075 88.6048 82.9836C92.1777 84.9597 96.1858 85.9957 100.26 85.9961C103.385 86.0536 106.49 85.4732 109.387 84.2897C112.285 83.1062 114.916 81.3441 117.123 79.109C120.857 75.2062 123.176 70.1449 123.705 64.7451C123.922 62.1704 123.96 59.5836 123.818 57.0037L102.371 57.0415ZM282.448 44.5826C278.581 44.5826 274.801 45.7403 271.586 47.9093C268.371 50.0782 265.865 53.161 264.385 56.7679C262.905 60.3747 262.518 64.3436 263.272 68.1726C264.027 72.0016 265.889 75.5188 268.623 78.2793C271.357 81.0399 274.841 82.9199 278.634 83.6815C282.427 84.4431 286.358 84.0522 289.93 82.5582C293.503 81.0642 296.557 78.5342 298.705 75.2881C300.853 72.0421 302 68.2257 302 64.3217C302.004 61.727 301.501 59.1569 300.52 56.7586C299.539 54.3603 298.1 52.1807 296.284 50.3445C294.468 48.5084 292.311 47.0517 289.937 46.0578C287.563 45.064 285.018 44.5524 282.448 44.5524V44.5826ZM282.448 75.9716C280.164 75.9716 277.931 75.2877 276.032 74.0064C274.133 72.7252 272.653 70.9041 271.78 68.7735C270.906 66.643 270.678 64.2986 271.124 62.0371C271.57 59.7756 272.67 57.6984 274.286 56.0684C275.902 54.4384 277.96 53.3287 280.2 52.8798C282.44 52.4308 284.762 52.6627 286.872 53.5462C288.982 54.4297 290.785 55.9251 292.053 57.8431C293.321 59.7612 293.997 62.0158 293.995 64.3217C293.987 67.4075 292.767 70.3641 290.602 72.5426C288.437 74.721 285.505 75.9434 282.448 75.9414V75.9716ZM249.8 83.0024H258.411V49.5193H249.8V83.0024ZM236.643 83.0024H245.254V74.2782H236.643V83.0024ZM214.822 44.5826C211.368 44.5793 207.974 45.5 204.986 47.2511C201.999 49.0022 199.524 51.5212 197.814 54.5516C196.105 57.582 195.221 61.0157 195.252 64.5031C195.284 67.9906 196.23 71.4073 197.995 74.4054C199.76 77.4036 202.28 79.8762 205.299 81.5716C208.318 83.2669 211.728 84.1245 215.181 84.0571C218.635 83.9896 222.01 82.9995 224.961 81.1875C227.913 79.3754 230.337 76.8063 231.985 73.7414L224.759 70.1958C223.603 72.1769 221.893 73.7686 219.843 74.7708C217.793 75.773 215.496 76.1409 213.239 75.8282C210.983 75.5155 208.869 74.5361 207.163 73.0134C205.456 71.4906 204.234 69.4924 203.65 67.2701H225.994H234.172C234.598 64.4578 234.417 61.5857 233.642 58.8505C232.866 56.1153 231.514 53.5816 229.679 51.4227C227.844 49.2639 225.568 47.5309 223.007 46.3425C220.447 45.1541 217.663 44.5383 214.844 44.5373L214.822 44.5826ZM204.017 60.2091C204.842 57.9905 206.319 56.079 208.249 54.7297C210.179 53.3804 212.471 52.6574 214.818 52.6574C217.166 52.6574 219.458 53.3804 221.388 54.7297C223.318 56.079 224.794 57.9905 225.62 60.2091H204.017ZM249.8 45.7242H258.411V37.0302H249.8V45.7242Z" fill="black"/>
<path d="M34.5 78.4765C29.4671 78.4765 24.6404 76.4772 21.0816 72.9184C17.5228 69.3596 15.5235 64.5329 15.5235 59.5C15.5235 54.4671 17.5228 49.6404 21.0816 46.0816C24.6404 42.5228 29.4671 40.5235 34.5 40.5235V25C27.6766 25 21.0063 27.0234 15.3328 30.8143C9.65934 34.6052 5.23739 39.9934 2.62617 46.2974C0.0149497 52.6015 -0.668267 59.5383 0.662923 66.2306C1.99411 72.9229 5.27992 79.0703 10.1048 83.8952C14.9297 88.7201 21.0771 92.0059 27.7694 93.3371C34.4617 94.6683 41.3985 93.985 47.7026 91.3738C54.0066 88.7626 59.3948 84.3407 63.1857 78.6672C66.9766 72.9937 69 66.3234 69 59.5H53.4765C53.4765 64.5329 51.4772 69.3596 47.9184 72.9184C44.3596 76.4772 39.5329 78.4765 34.5 78.4765Z" fill="#2354E6"/>
<path d="M54 40H34V60H54V40Z" fill="#17E6A1"/>
</svg>