<svg width="213" height="120" viewBox="0 0 213 120" fill="none" xmlns="http://www.w3.org/2000/svg">
<mask id="mask0_1572_2" style="mask-type:luminance" maskUnits="userSpaceOnUse" x="0" y="5" width="213" height="82">
<path d="M213 5.46509H0V86.9999H213V5.46509Z" fill="white"/>
</mask>
<g mask="url(#mask0_1572_2)">
<path d="M35.3303 30.6228C35.5746 18.6496 28.7261 8.21637 25.1591 5.70887C25.1429 5.69272 24.8252 5.52343 24.8495 5.99107C24.8495 5.9991 24.8414 5.9991 24.8414 6.00717C24.4751 28.6234 12.7321 34.7188 6.35585 43.0072C-7.81372 61.4385 4.01043 82.4665 19.3282 86.4492C19.589 86.5139 20.2974 86.7236 21.6411 86.9975C22.3414 87.1429 22.5451 86.5541 22.0318 85.6753C20.1996 82.5227 16.9422 77.2013 16.2991 70.364C14.8333 54.4884 35.0451 44.5552 35.3303 30.6228Z" fill="#00003D"/>
<path d="M43.0501 38.2906C42.928 38.2019 42.7572 38.2099 42.741 38.3629C42.4152 41.2416 39.4101 47.2081 35.4523 52.7874C22.1295 71.5978 28.84 80.128 34.0518 86.0463C35.0125 87.1428 35.4929 86.9011 35.998 86.119C36.4703 85.3772 37.1868 84.4337 40.2653 82.9906C40.7457 82.7649 52.3747 76.6534 53.6368 62.737C54.8503 49.2721 46.1283 40.7576 43.0501 38.2906Z" fill="#008CD6"/>
<path d="M112.23 34.8638V84.361H101.505V64.3657H80.8935V84.361H69.8999V34.8638H80.8935V54.8595H101.505V34.8638H112.23Z" fill="#00003D"/>
<path d="M161.815 34.8638V44.652H156.709H146.416V84.353H135.381V44.652H125.365H120.259V34.8638H161.815Z" fill="#00003D"/>
<path fill-rule="evenodd" clip-rule="evenodd" d="M200.871 84.4096L188.265 67.1873L175.757 84.3369L163.525 84.353L182.068 59.0844L164.567 34.8638H176.791L213.045 84.4096H200.871Z" fill="#00003D"/>
<path d="M191.693 45.942L197.744 54.2629L212.077 34.8557H199.918L191.693 45.942Z" fill="#008CD6"/>
</g>
</svg>