<svg width="346" height="120" viewBox="0 0 346 120" fill="none" xmlns="http://www.w3.org/2000/svg">
<path d="M32.3095 33.076C38.3098 32.6721 44.4255 33.8837 49.7912 36.5954C57.7532 40.5187 64.0997 47.5575 67.0422 55.8657C68.3692 59.5582 69.0615 63.4238 69.0615 67.3471V81.8287C69.0615 82.4056 69.0615 83.0403 68.9461 83.6172C68.6 85.0596 67.5614 86.3866 66.1767 87.0213C65.1959 87.4828 64.0997 87.5405 63.1189 87.3674C60.9265 86.9635 59.1956 84.8865 59.1956 82.6364C59.1956 78.1361 59.1956 73.6359 59.1956 69.1356C59.2533 67.8663 59.2533 66.4817 58.5609 65.3854C57.4647 63.3084 54.6953 62.3276 52.5606 63.193C50.7144 63.8277 49.3874 65.7316 49.3297 67.6933C49.3297 72.2512 49.3297 76.8091 49.3297 81.3671C49.3297 82.2325 49.3874 83.0979 49.0989 83.9057C48.6373 85.5212 47.3103 86.7905 45.6948 87.252C43.5601 87.829 41.1369 86.9059 40.0984 84.9442C39.3483 83.7903 39.406 82.3479 39.4637 81.0209C39.4637 76.463 39.4637 71.9627 39.4637 67.4048C39.406 65.097 37.5021 63.0199 35.252 62.7314C33.7519 62.5007 32.1941 63.0199 31.0979 64.0584C30.1171 64.9816 29.5978 66.3086 29.5978 67.6356V80.8478C29.5978 81.944 29.7132 83.098 29.3093 84.1365C28.6747 86.0404 26.7707 87.4251 24.7514 87.3674C22.6743 87.4828 20.655 86.0404 20.0203 84.1365C19.6742 83.1557 19.7319 82.1748 19.7319 81.1363C19.7319 76.5784 19.7319 72.0204 19.7319 67.4625C19.7319 65.2123 17.9433 63.1353 15.7509 62.7314C13.7315 62.3276 11.5391 63.3084 10.5006 65.1546C10.0967 65.9047 9.86593 66.7701 9.86593 67.6356V82.4633C9.86593 83.9057 9.23128 85.3481 8.13507 86.2712C6.4619 87.7136 3.75021 87.829 2.01934 86.502C0.750042 85.6366 0 84.1365 0 82.5787V67.5779C0 61.9237 1.44239 56.2695 4.15408 51.25C6.34651 47.1537 9.40437 43.5188 13.0392 40.6341C18.4049 36.1338 25.2706 33.4798 32.3095 33.076Z" fill="#5741D9"/>
<path d="M167.144 50.4423H159.643C159.932 45.192 161.028 40.461 165.817 37.4608C170.605 34.5183 175.856 33.826 181.337 34.2876C184.279 34.5183 187.222 35.153 189.933 36.4223C194.722 38.6147 197.088 42.3649 197.088 47.6152C197.088 56.9042 197.088 66.1932 197.088 75.4822C197.088 78.8862 197.78 79.5208 201.184 79.1747C201.53 79.117 201.934 79.0593 202.28 79.0016C202.338 79.1747 202.338 79.3478 202.338 79.4632V85.1173C199.626 86.0404 196.857 86.3289 194.145 85.5789C192.126 85.0019 190.857 83.5595 190.164 81.6556C189.818 80.6748 189.587 79.6362 189.299 78.54C189.01 78.8862 188.78 79.1747 188.491 79.4632C182.548 85.4635 175.51 88.0021 167.201 85.8674C161.316 84.3673 157.278 79.0016 157.105 72.8859C157.047 70.9242 157.22 68.9626 157.682 67.0586C158.778 62.6738 161.893 60.0198 165.817 58.2312C168.586 56.9619 171.586 56.6157 174.586 56.2118C178.106 55.7503 181.568 55.3464 185.087 54.8272C187.453 54.481 188.664 53.2117 189.01 50.8462C189.76 46.0574 187.626 42.8842 183.01 41.7303C180.241 41.0379 177.414 40.9226 174.586 41.4418C170.432 42.1919 168.125 44.5574 167.317 48.6538C167.375 49.2307 167.259 49.8076 167.144 50.4423ZM189.241 59.6736C185.779 61.5198 182.433 61.9814 179.029 62.5007C176.202 62.9622 173.317 63.3661 170.548 64.2315C166.913 65.4431 165.24 68.4433 165.586 72.482C165.874 75.8283 168.125 78.54 171.759 79.117C177.356 80.0401 182.318 78.4823 186.241 74.3283C187.395 73.1167 188.318 71.3858 188.549 69.7703C189.068 66.5393 189.01 63.2507 189.241 59.6736ZM296.151 69.3664C295.978 70.1742 295.862 70.8665 295.689 71.5012C292.458 81.3671 285.881 85.5789 277.919 86.502C264.13 88.0021 256.226 79.0016 254.206 69.4241C252.591 61.8083 252.822 54.2502 256.168 47.096C259.341 40.3456 264.418 35.903 271.976 34.576C281.035 32.9606 293.843 37.4608 295.978 51.5962C296.555 55.231 296.67 58.9812 297.016 62.7892H261.937C262.226 67.9817 263.034 72.8282 266.842 76.5784C268.399 78.1362 270.419 78.8862 272.611 79.2901C279.708 80.5594 285.593 77.1553 287.9 70.2896C288.131 69.5395 288.477 69.3087 289.227 69.3664C291.478 69.3664 293.728 69.3664 296.151 69.3664ZM262.226 56.0965H288.477C288.189 53.0386 287.67 50.2115 286.227 47.5575C284.843 45.0189 282.823 43.1727 280.054 42.2495C270.996 39.134 261.649 46.3459 262.226 56.0965ZM315.017 84.8288H307.055V35.3261H314.613V42.2495C315.19 41.6149 315.537 41.211 315.883 40.8072C321.306 34.6337 328.114 33.0183 335.845 34.9222C341.211 36.2492 344.211 40.0571 345.25 45.3651C345.654 47.5575 345.942 49.8077 345.942 52.0001C346 62.6161 346 73.232 346 83.848C346 84.1365 345.942 84.425 345.942 84.7711H337.807V83.4441C337.807 73.5205 337.865 63.5969 337.749 53.6732C337.749 51.4808 337.403 49.2307 336.769 47.096C335.73 43.6342 332.961 41.788 329.326 41.6149C322.691 41.3841 317.441 44.9035 315.825 50.7885C315.248 52.9232 315.075 55.1733 315.075 57.4235C315.017 66.1355 315.017 74.7898 315.017 83.3864V84.8288ZM210.069 35.3261H217.743V56.3272C218.204 55.8657 218.493 55.6349 218.781 55.3464C225.07 48.9422 231.359 42.4803 237.648 36.0761C238.167 35.4992 238.686 35.2684 239.494 35.2684C242.436 35.3261 245.437 35.2684 248.667 35.2684C248.206 35.7299 247.975 36.0184 247.687 36.3069C242.148 41.8457 236.667 47.4421 231.07 52.9232C230.436 53.5579 230.436 53.9617 230.84 54.6541C236.898 64.2892 242.898 73.9244 248.898 83.5595C249.129 83.9057 249.302 84.2519 249.591 84.7711C249.187 84.8288 248.898 84.8288 248.552 84.8288C245.783 84.8288 243.071 84.8288 240.302 84.8288C239.552 84.8288 239.205 84.5404 238.802 83.9634C234.186 76.2322 229.57 68.501 224.955 60.7121C224.724 60.3659 224.551 60.0198 224.262 59.6159C222.128 61.7506 220.051 63.77 217.973 65.9047C217.685 66.1932 217.627 66.7124 217.627 67.1163C217.627 72.5397 217.627 77.9631 217.627 83.3864V84.7711C216.127 84.7711 214.627 84.7711 213.185 84.7711C212.146 84.7711 210.704 85.0596 210.127 84.4827C209.608 84.0211 209.896 82.521 209.896 81.4825V36.6531C210.069 36.3646 210.069 35.903 210.069 35.3261ZM121.507 35.2684C115.275 41.4418 109.217 47.4998 103.102 53.5579C109.679 64.0585 116.083 74.3282 122.603 84.8288C122.084 84.8288 121.737 84.8865 121.391 84.8865C118.737 84.8865 116.026 84.8865 113.372 84.8865C112.621 84.8865 112.16 84.598 111.756 83.9634C107.14 76.2322 102.525 68.501 97.9091 60.7121C97.736 60.3659 97.5053 60.0775 97.2168 59.6159C96.0629 60.8275 95.0244 62.1545 93.755 63.0776C91.1588 65.0393 90.4087 67.4625 90.5818 70.6934C90.8703 74.9052 90.6395 79.1747 90.6395 83.3864V84.7711H83.0237V35.3261H90.6395V55.9811C90.8126 56.0965 90.9857 56.2119 91.1011 56.3272C91.3318 55.9811 91.4472 55.5772 91.678 55.2887C97.9091 48.8845 104.198 42.538 110.429 36.0761C111.006 35.4992 111.525 35.2107 112.391 35.2684C114.987 35.3261 117.583 35.2684 120.18 35.2684C120.583 35.2684 120.93 35.2684 121.507 35.2684ZM136.738 43.5188C140.604 37.8647 144.7 33.1337 152.316 34.5183V42.9996C150.297 43.115 148.277 43.0573 146.373 43.4612C141.7 44.442 138.065 48.7114 137.315 53.904C137.2 54.9425 137.084 55.9811 137.084 57.0196C137.084 65.847 137.084 74.6744 137.084 83.5018V84.8865H129.238V35.4415H136.738C136.738 38.0378 136.738 40.6341 136.738 43.5188Z" fill="#5741D9"/>
</svg>