<svg width="354" height="120" viewBox="0 0 354 120" fill="none" xmlns="http://www.w3.org/2000/svg">
<g clip-path="url(#clip0_236_166)">
<g clip-path="url(#clip1_236_166)">
<path d="M278.19 59.9624C278.19 57.871 278.19 55.9038 278.123 54.087C278.077 52.373 277.908 50.6647 277.617 48.9751C277.345 47.4324 276.864 45.9341 276.189 44.5216C275.476 43.0652 274.523 41.7401 273.37 40.6021C271.736 38.9212 269.791 37.5759 267.644 36.6413C265.321 35.697 262.833 35.2289 260.328 35.2646C257.812 35.232 255.316 35.6999 252.982 36.6413C250.822 37.5631 248.865 38.9026 247.221 40.5833C246.071 41.7206 245.122 43.046 244.414 44.5028C243.744 45.9156 243.271 47.4141 243.008 48.9563C242.724 50.6463 242.561 52.3547 242.521 54.0682C242.476 55.885 242.454 57.8522 242.465 59.9436C242.476 62.035 242.465 63.9872 242.521 65.8152C242.561 67.5287 242.724 69.2371 243.008 70.9271C243.271 72.4693 243.744 73.9678 244.414 75.3806C245.124 76.8357 246.073 78.1607 247.221 79.3001C248.862 80.9821 250.82 82.3196 252.982 83.2346C255.314 84.1821 257.812 84.6528 260.328 84.6188C262.834 84.6559 265.323 84.1851 267.644 83.2346C269.791 82.3124 271.737 80.9756 273.37 79.3001C274.52 78.1599 275.473 76.8353 276.189 75.3806C276.864 73.9681 277.345 72.4698 277.617 70.9271C277.905 69.2423 278.071 67.539 278.115 65.8303C278.172 64.0022 278.198 62.0462 278.183 59.9586L278.19 59.9624ZM268.746 59.9624C268.746 62.2795 268.712 64.2091 268.633 65.7438C268.589 67.0044 268.464 68.2608 268.258 69.5052C268.118 70.3343 267.866 71.1404 267.509 71.9013C267.219 72.5146 266.84 73.0812 266.384 73.5827C265.681 74.391 264.808 75.0332 263.828 75.4634C262.726 75.9369 261.538 76.1776 260.339 76.1707C259.134 76.1759 257.94 75.9353 256.831 75.4634C255.827 75.0412 254.931 74.3985 254.207 73.5827C253.749 73.0835 253.369 72.5164 253.083 71.9013C252.736 71.1396 252.496 70.3332 252.371 69.5052C252.171 68.2601 252.046 67.004 251.996 65.7438C251.929 64.2091 251.895 62.282 251.895 59.9624C251.895 57.6453 251.929 55.7119 251.996 54.1773C252.046 52.917 252.171 51.6609 252.371 50.4158C252.496 49.5878 252.736 48.7814 253.083 48.0197C253.37 47.4052 253.75 46.8382 254.207 46.3384C254.932 45.5236 255.828 44.8812 256.831 44.4576C257.939 43.9804 259.133 43.7396 260.339 43.7505C261.539 43.738 262.727 43.9789 263.828 44.4576C264.807 44.8891 265.68 45.5312 266.384 46.3384C266.839 46.8405 267.218 47.407 267.509 48.0197C267.866 48.7806 268.118 49.5867 268.258 50.4158C268.463 51.6602 268.589 52.9167 268.633 54.1773C268.716 55.7082 268.746 57.6416 268.746 59.9624Z" fill="#23AF91"/>
<path d="M353.449 36.5209C353.445 36.0635 353.076 35.6937 352.62 35.6896H344.828C344.372 35.6917 344.002 36.0627 344 36.5209V65.409L324.998 35.9228C324.871 35.7235 324.758 35.6896 324.477 35.6896H317.251C316.796 35.6957 316.429 36.0644 316.423 36.5209V83.3963C316.429 83.8523 316.797 84.2198 317.251 84.2239H325.039C325.494 84.2218 325.862 83.8525 325.864 83.3963V54.433L344.87 83.9869C345.001 84.1862 345.106 84.2201 345.391 84.2201H352.613C353.068 84.2181 353.437 83.8494 353.441 83.3926L353.449 36.5209Z" fill="#23AF91"/>
<path d="M301.218 36.5209C301.216 36.0627 300.846 35.6917 300.389 35.6896H292.605C292.148 35.6917 291.779 36.0627 291.777 36.5209V83.3926C291.779 83.8508 292.148 84.2218 292.605 84.2239H300.389C300.846 84.2218 301.216 83.8508 301.218 83.3926V36.5209Z" fill="#23AF91"/>
<path d="M208.029 59.9624C208.029 57.6303 208.055 55.6893 208.123 54.1434C208.169 52.8829 208.294 51.6266 208.497 50.3819C209.217 46.2067 212.403 43.7429 216.469 43.7429C219.123 43.7655 221.529 44.751 223.066 46.9928C223.762 48.0395 224.269 49.2006 224.565 50.4233C224.588 50.5521 224.705 50.642 224.835 50.6302H233.998C234.13 50.6302 234.178 50.5399 234.156 50.412C233.155 44.7209 230.131 39.6091 224.786 37.0776C222.159 35.8571 219.292 35.2464 216.398 35.2909C211.238 35.2909 206.892 37.0638 203.359 40.6096C201.342 42.5826 199.965 45.1207 199.409 47.8918C198.869 50.6201 198.597 54.6424 198.592 59.9586C198.587 65.2748 198.859 69.2958 199.409 72.0216C199.96 74.7963 201.333 77.3395 203.348 79.3189C206.878 82.8622 211.225 84.6338 216.387 84.6338C219.281 84.6778 222.147 84.0684 224.775 82.8509C230.119 80.3194 233.144 75.2076 234.145 69.5165C234.167 69.3849 234.118 69.2983 233.987 69.2983H224.82C224.689 69.2847 224.571 69.3754 224.55 69.5052C224.253 70.7265 223.746 71.8863 223.051 72.9319C221.514 75.1888 219.108 76.163 216.454 76.1818C212.388 76.1818 209.202 73.7218 208.482 69.5466C208.279 68.3019 208.154 67.0456 208.108 65.7851C208.055 64.2316 208.029 62.287 208.029 59.9624Z" fill="#23AF91"/>
<path d="M111.242 36.5209C111.24 36.0627 110.871 35.6917 110.414 35.6896H102.63C102.173 35.6917 101.803 36.0627 101.801 36.5209V83.3963C101.805 83.8531 102.174 84.2218 102.63 84.2243H110.414C110.869 84.2218 111.238 83.8531 111.242 83.3963V69.6369L117.49 62.1403L130.323 83.9756C130.422 84.1366 130.6 84.2315 130.788 84.2243H140.248C140.682 84.2243 140.761 83.953 140.544 83.5806L123.742 54.9935L139.157 36.4344C139.468 36.0583 139.337 35.7009 138.85 35.7009H128.509C128.383 35.6935 128.262 35.75 128.187 35.8514L111.242 56.2461V36.5209Z" fill="#23AF91"/>
<path d="M167.956 76.1818C163.575 76.1818 159.602 72.1119 159.602 67.2521V36.5209C159.6 36.0627 159.23 35.6917 158.774 35.6896H150.989C150.533 35.6917 150.163 36.0627 150.161 36.5209V67.1317C150.161 77.8331 158.136 84.6339 167.956 84.6339C177.776 84.6339 185.751 77.8331 185.751 67.1317V36.5209C185.747 36.0635 185.379 35.6937 184.923 35.6896H177.135C176.68 35.6937 176.312 36.0641 176.31 36.5209V67.2521C176.31 72.1082 172.334 76.1818 167.956 76.1818Z" fill="#23AF91"/>
<path fill-rule="evenodd" clip-rule="evenodd" d="M23.552 59.9624L47.7187 84.2201L62.9728 68.9109C65.7004 66.4461 69.8734 66.5557 72.4687 69.1605C75.0641 71.7652 75.1734 75.9533 72.7174 78.6907L52.5872 98.8974C49.8833 101.566 45.5466 101.566 42.8426 98.8974L13.7999 69.7422V87.0713C13.7999 90.8958 10.7107 93.9962 6.89994 93.9962C3.08921 93.9962 0 90.8958 0 87.0713V32.8309C0 29.0064 3.08921 25.9061 6.89994 25.9061C10.7107 25.9061 13.7999 29.0064 13.7999 32.8309V50.16L42.8389 21.0124C45.542 18.3415 49.8804 18.3415 52.5835 21.0124L72.7286 41.2152C75.1846 43.9527 75.0754 48.1408 72.48 50.7455C69.8846 53.3503 65.7116 53.4599 62.984 50.9951L47.7299 35.6859L23.552 59.9624ZM47.7299 53.03C44.9358 53.0285 42.4159 54.7165 41.3456 57.3069C40.2753 59.8972 40.8653 62.8796 42.8405 64.863C44.8158 66.8464 47.7871 67.4402 50.3687 66.3674C52.9503 65.2947 54.6336 62.7666 54.6336 59.9624C54.6346 58.1238 53.9078 56.3601 52.6131 55.0594C51.3184 53.7586 49.5619 53.0272 47.7299 53.0262V53.03Z" fill="#23AF91"/>
</g>
</g>
<defs>
<clipPath id="clip0_236_166">
<rect width="354" height="120" fill="white"/>
</clipPath>
<clipPath id="clip1_236_166">
<rect width="356" height="82" fill="white" transform="translate(0 19)"/>
</clipPath>
</defs>
</svg>