<svg width="168" height="120" viewBox="0 0 168 120" fill="none" xmlns="http://www.w3.org/2000/svg">
<path d="M48.8888 35H1.11096C0.816314 35 0.533718 35.117 0.325453 35.3255C0.116966 35.5337 0 35.8163 0 36.1112V83.889C0 84.1837 0.116966 84.4663 0.325453 84.6745C0.533718 84.883 0.816314 85 1.11096 85H48.8888C49.1837 85 49.4663 84.883 49.6745 84.6745C49.883 84.4663 50 84.1837 50 83.889V36.1112C50 35.8163 49.883 35.5337 49.6745 35.3255C49.4663 35.117 49.1837 35 48.8888 35ZM33.3333 67.2223C33.3333 67.5169 33.2163 67.7995 33.0078 68.008C32.7995 68.2163 32.5169 68.3335 32.2223 68.3335H17.7777C17.4831 68.3335 17.2005 68.2163 16.992 68.008C16.7837 67.7995 16.6667 67.5169 16.6667 67.2223V52.7777C16.6667 52.4831 16.7837 52.2005 16.992 51.9922C17.2005 51.7837 17.4831 51.6667 17.7777 51.6667H32.2223C32.5169 51.6667 32.7995 51.7837 33.0078 51.9922C33.2163 52.2005 33.3333 52.4831 33.3333 52.7777V67.2223Z" fill="black"/>
<path d="M149.867 51H135.133C134.507 51 134 51.5371 134 52.1998V67.7999C134 68.4626 134.507 69 135.133 69H149.867C150.493 69 151 68.4626 151 67.7999V52.1998C151 51.5371 150.493 51 149.867 51Z" fill="black"/>
<path d="M132.933 35H119.067C118.478 35 118 35.4774 118 36.0667V49.9333C118 50.5223 118.478 51 119.067 51H132.933C133.523 51 134 50.5223 134 49.9333V36.0667C134 35.4774 133.523 35 132.933 35Z" fill="black"/>
<path d="M166.867 35H152.133C151.508 35 151 35.4774 151 36.0667V49.9333C151 50.5223 151.508 51 152.133 51H166.867C167.493 51 168 50.5223 168 49.9333V36.0667C168 35.4774 167.493 35 166.867 35Z" fill="black"/>
<path d="M132.933 69H119.067C118.478 69 118 69.4774 118 70.0665V83.9333C118 84.5223 118.478 85 119.067 85H132.933C133.523 85 134 84.5223 134 83.9333V70.0665C134 69.4774 133.523 69 132.933 69Z" fill="black"/>
<path d="M166.867 69H152.133C151.508 69 151 69.4774 151 70.0665V83.9333C151 84.5223 151.508 85 152.133 85H166.867C167.493 85 168 84.5223 168 83.9333V70.0665C168 69.4774 167.493 69 166.867 69Z" fill="black"/>
<path d="M106.933 35H93.0667C92.4777 35 92 35.4774 92 36.0667V49.9333C92 50.5223 92.4777 51 93.0667 51H106.933C107.522 51 108 50.5223 108 49.9333V36.0667C108 35.4774 107.522 35 106.933 35Z" fill="black"/>
<path d="M106.933 69H93.0667C92.4777 69 92 69.4774 92 70.0665V83.9333C92 84.5223 92.4777 85 93.0667 85H106.933C107.522 85 108 84.5223 108 83.9333V70.0665C108 69.4774 107.522 69 106.933 69Z" fill="black"/>
<path d="M92 52.7741C92 52.4793 91.8805 52.1966 91.668 51.9882C91.4554 51.7796 91.1671 51.6626 90.8666 51.6626H75V36.1117C75 35.8167 74.8805 35.534 74.668 35.3256C74.4554 35.117 74.1671 35 73.8666 35H59.1334C58.8326 35 58.5444 35.117 58.332 35.3256C58.1193 35.534 58 35.8167 58 36.1117V83.8885C58 84.1833 58.1193 84.466 58.332 84.6744C58.5444 84.883 58.8326 85 59.1334 85H73.8666C74.1671 85 74.4554 84.883 74.668 84.6744C74.8805 84.466 75 84.1833 75 83.8885V68.3376H90.8666C91.1671 68.3376 91.4554 68.2204 91.668 68.012C91.8805 67.8034 92 67.5207 92 67.2259V52.7741Z" fill="black"/>
</svg>